<svg version="1.1" id="Layer_1" xmlns="http://www.w3.org/2000/svg" xmlns:xlink="http://www.w3.org/1999/xlink" x="0px" y="0px"
	 width="100%" viewBox="0 0 256 256" enable-background="new 0 0 256 256" xml:space="preserve">
<path fill="#0054FF" opacity="1.000000" stroke="none" 
	d="
M141.000000,257.000000 
	C94.000000,257.000000 47.500004,257.000000 1.000006,257.000000 
	C1.000004,171.666672 1.000004,86.333351 1.000002,1.000018 
	C86.333321,1.000012 171.666641,1.000012 257.000000,1.000006 
	C257.000000,86.333313 257.000000,171.666626 257.000000,256.999969 
	C218.500000,257.000000 180.000000,257.000000 141.000000,257.000000 
M201.270905,213.562027 
	C208.443665,216.508636 215.357056,213.538101 215.476822,206.743484 
	C215.532669,203.575165 213.554855,199.636002 211.243118,197.276596 
	C191.773102,177.405151 172.026947,157.803864 152.309509,138.175934 
	C150.791794,136.665085 148.859848,135.570374 147.351837,134.453583 
	C167.486679,103.072212 156.878601,69.789062 134.886810,53.467503 
	C111.931305,36.430721 79.804955,38.640331 59.481823,58.837135 
	C38.888916,79.302032 36.516399,111.223343 53.672245,134.582733 
	C69.649124,156.336823 103.441200,167.770126 135.253357,146.737076 
	C156.961609,168.750259 178.822372,190.918076 201.270905,213.562027 
z"/>
<path fill="#FCFDFF" opacity="1.000000" stroke="none" 
	d="
M200.977020,213.323975 
	C178.822372,190.918076 156.961609,168.750259 135.253357,146.737076 
	C103.441200,167.770126 69.649124,156.336823 53.672245,134.582733 
	C36.516399,111.223343 38.888916,79.302032 59.481823,58.837135 
	C79.804955,38.640331 111.931305,36.430721 134.886810,53.467503 
	C156.878601,69.789062 167.486679,103.072212 147.351837,134.453583 
	C148.859848,135.570374 150.791794,136.665085 152.309509,138.175934 
	C172.026947,157.803864 191.773102,177.405151 211.243118,197.276596 
	C213.554855,199.636002 215.532669,203.575165 215.476822,206.743484 
	C215.357056,213.538101 208.443665,216.508636 200.977020,213.323975 
M133.709717,81.980042 
	C132.905975,80.719223 132.150925,79.424141 131.291107,78.202805 
	C120.548759,62.943710 100.693794,57.757320 83.836304,65.790833 
	C67.290665,73.675735 58.739960,92.457993 63.672489,110.082161 
	C69.691040,131.586731 92.602264,143.410889 113.349525,135.719803 
	C134.761017,127.782494 143.997025,104.084877 133.709717,81.980042 
z"/>
<path fill="#0255FF" opacity="1.000000" stroke="none" 
	d="
M133.869904,82.318954 
	C143.997025,104.084877 134.761017,127.782494 113.349525,135.719803 
	C92.602264,143.410889 69.691040,131.586731 63.672489,110.082161 
	C58.739960,92.457993 67.290665,73.675735 83.836304,65.790833 
	C100.693794,57.757320 120.548759,62.943710 131.291107,78.202805 
	C132.150925,79.424141 132.905975,80.719223 133.869904,82.318954 
z"/>
</svg>